<svg width="400" height="413" viewBox="0 0 400 413" fill="none" xmlns="http://www.w3.org/2000/svg">
<path fill-rule="evenodd" clip-rule="evenodd" d="M135.462 4.10798C29.4781 46.538 -23.5069 167.276 16.6021 274.958C39.3011 335.899 91.8641 384.896 153.95 402.987C201.892 416.957 254.035 413.786 299.16 394.156C336.244 378.023 370.904 348.578 392.108 315.191C392.108 315.191 392.556 313.985 392 313.5C391.272 312.865 389.026 313.402 389.026 313.402C360.614 323.796 324.422 327.993 294.21 324.397C289.085 323.787 285.586 324.284 285.5 324.397C282.053 328.923 245.591 369.274 244.716 369.742C240.285 372.114 224.494 360.71 225.326 355.739C225.447 355.016 237.118 341.378 251.261 325.431C282.5 290.206 281.079 293.44 269.76 283.342C263.681 277.92 263.225 277.647 260.234 277.647C256.32 277.647 258.281 275.668 225.931 312.269C212.205 327.798 200.254 340.885 199.373 341.351C195.122 343.6 180.52 330.097 181.779 325.081C182.224 323.307 202.439 301.127 224.518 278.19C239.499 262.625 239.495 262.654 227.834 252.151C222.133 247.017 221.638 246.723 218.706 246.723H215.605L202.793 260C162.876 301.366 156.779 307.073 153.413 306.228C151.418 305.728 140.856 295.703 139.419 292.947C137.645 289.543 138.556 288.47 167.3 260.084C201.134 226.671 199.88 228.45 194.151 222.002C180.36 206.477 181.345 206.361 161.681 225.833C146.597 240.769 119.1 264.484 115.947 265.275C112.934 266.031 111.269 264.984 106.464 259.312C96.4251 247.461 95.7741 249.202 116.827 231.582C125.967 223.932 133.426 217.478 133.403 217.24C133.38 217.002 131.227 212.42 128.619 207.059C97.7211 143.537 100.691 67.058 136.342 8.23498C138.19 5.18498 137.742 3.98 137.5 4C137.258 4.02 137.311 3.36798 135.462 4.10798Z" fill="#404256"/>
<path d="M271.333 162.802H261.333V131.982C261.333 96.1104 232.917 66.9167 198 66.9167C163.083 66.9167 134.667 96.1104 134.667 131.982V162.802H124.667C113.625 162.802 104.667 172.005 104.667 183.349V265.536C104.667 276.88 113.625 286.083 124.667 286.083H271.333C282.375 286.083 291.333 276.88 291.333 265.536V183.349C291.333 172.005 282.375 162.802 271.333 162.802ZM228 162.802H168V131.982C168 114.988 181.458 101.161 198 101.161C214.542 101.161 228 114.988 228 131.982V162.802Z" fill="#D8B68E"/>
<circle cx="198" cy="206" r="14" fill="#977955"/>
<path d="M198 210L211.856 242.25H184.144L198 210Z" fill="#977955"/>
</svg>
