<svg width="440" height="440" viewBox="0 0 440 440" fill="none" xmlns="http://www.w3.org/2000/svg"><circle cx="220" cy="220" r="220" fill="#F5F5F5"/><path fill-rule="evenodd" clip-rule="evenodd" d="M144.34 32.0943C42.4608 72.8809 -8.47212 188.943 30.0835 292.454C51.9033 351.035 102.431 398.134 162.112 415.525C208.197 428.954 258.321 425.905 301.698 407.036C337.346 391.528 370.663 363.223 391.046 331.129C391.046 331.129 391.477 329.97 390.942 329.504C390.242 328.893 388.083 329.409 388.083 329.409C360.772 339.401 325.981 343.435 296.94 339.978C292.013 339.392 288.65 339.87 288.567 339.978C285.253 344.329 250.204 383.117 249.363 383.567C245.103 385.847 229.924 374.885 230.724 370.107C230.84 369.412 242.059 356.302 255.654 340.972C285.683 307.112 284.317 310.22 273.437 300.514C267.593 295.302 267.155 295.039 264.28 295.039C260.517 295.039 262.402 293.137 231.305 328.32C218.111 343.248 206.623 355.828 205.776 356.276C201.689 358.438 187.653 345.458 188.863 340.636C189.291 338.931 208.723 317.61 229.947 295.561C244.348 280.599 244.344 280.627 233.134 270.531C227.654 265.595 227.178 265.313 224.36 265.313H221.379L209.063 278.076C170.692 317.839 164.831 323.325 161.596 322.513C159.678 322.032 149.525 312.396 148.144 309.746C146.438 306.474 147.314 305.443 174.945 278.156C207.468 246.037 206.263 247.747 200.756 241.549C187.499 226.626 188.446 226.514 169.544 245.232C155.044 259.589 128.612 282.386 125.581 283.146C122.684 283.873 121.084 282.867 116.465 277.414C106.815 266.022 106.189 267.696 126.427 250.758C135.213 243.404 142.383 237.2 142.361 236.972C142.339 236.743 140.269 232.338 137.762 227.185C108.061 166.123 110.916 92.6062 145.186 36.0614C146.962 33.1295 146.532 31.9712 146.299 31.9905C146.066 32.0097 146.117 31.3829 144.34 32.0943Z" fill="#404256"/><path d="M285.333 180.802H275.333V149.982C275.333 114.11 246.917 84.9167 212 84.9167C177.083 84.9167 148.667 114.11 148.667 149.982V180.802H138.667C127.625 180.802 118.667 190.005 118.667 201.349V283.536C118.667 294.88 127.625 304.083 138.667 304.083H285.333C296.375 304.083 305.333 294.88 305.333 283.536V201.349C305.333 190.005 296.375 180.802 285.333 180.802ZM242 180.802H182V149.982C182 132.988 195.458 119.161 212 119.161C228.542 119.161 242 132.988 242 149.982V180.802Z" fill="#D8B68E"/><circle cx="212" cy="224" r="14" fill="#977955"/><path d="M212 228L225.856 260.25H198.144L212 228Z" fill="#977955"/></svg>
