<svg width="32" height="32" viewBox="0 0 32 32" fill="none" xmlns="http://www.w3.org/2000/svg"><circle cx="16.0002" cy="16" r="14.7778" fill="#D8B68E"/><path d="M16.0001 0.166687C7.25344 0.166687 0.166748 7.25338 0.166748 16C0.166748 24.7467 7.25344 31.8334 16.0001 31.8334C24.7467 31.8334 31.8334 24.7467 31.8334 16C31.8334 7.25338 24.7467 0.166687 16.0001 0.166687ZM16.0001 6.29572C19.1029 6.29572 21.6184 8.81118 21.6184 11.914C21.6184 15.0168 19.1029 17.5323 16.0001 17.5323C12.8973 17.5323 10.3818 15.0168 10.3818 11.914C10.3818 8.81118 12.8973 6.29572 16.0001 6.29572ZM16.0001 28.2581C12.2524 28.2581 8.89424 26.5598 6.64692 23.9039C7.84719 21.6438 10.1967 20.086 12.9356 20.086C13.0888 20.086 13.242 20.1116 13.3889 20.1563C14.2188 20.4244 15.0871 20.5968 16.0001 20.5968C16.9131 20.5968 17.7877 20.4244 18.6113 20.1563C18.7581 20.1116 18.9114 20.086 19.0646 20.086C21.8035 20.086 24.153 21.6438 25.3532 23.9039C23.1059 26.5598 19.7477 28.2581 16.0001 28.2581Z" fill="#F9FCFF"/></svg>
